<svg id="Layer_1" data-name="Layer 1" xmlns="http://www.w3.org/2000/svg" xmlns:xlink="http://www.w3.org/1999/xlink" viewBox="0 0 980.54036 421.73407"><defs><style>.cls-1{fill:url(#linear-gradient);}.cls-2{fill:#1d1d1b;}</style><linearGradient id="linear-gradient" x1="725.1748" y1="140.38978" x2="904.87485" y2="140.38978" gradientUnits="userSpaceOnUse"><stop offset="0" stop-color="#f0f"/><stop offset="0.11566" stop-color="#f500ff"/><stop offset="0.31353" stop-color="#da00ff"/><stop offset="0.56959" stop-color="#ad00ff"/><stop offset="0.87074" stop-color="#7000ff"/><stop offset="1" stop-color="#5400ff"/></linearGradient></defs><path d="M75.50715,218.56556h11.5L125.8675,270.129h.0752l38.78466-51.56348h11.65088V320.79017H163.07356V240.06361l-35.32715,47.12793h-3.8335l-35.102-47.20313v80.80176H75.50715Z"/><path d="M195.71717,218.56556h43.67089c16.98682,0,29.16358,10.89942,29.16358,26.90918,0,9.39551-5.938,17.96484-13.5293,21.27149,10.82373,3.15722,19.46729,13.22949,19.46729,25.18066,0,18.49023-14.88233,28.86328-30.81739,28.86328H195.71717Zm43.06933,44.34766a16.38617,16.38617,0,0,0,.0752-32.77149h-29.69v32.77149Zm3.8335,46.15136a17.9279,17.9279,0,1,0,.15039-35.85351H209.17175v35.85351Z"/><path d="M358.93142,297.63978H307.29323l-9.69629,23.15039H283.46608L326.761,218.56556h12.77832l43.21972,102.22461H368.6277Zm-4.73536-11.27539-20.59521-49.082-.37549-1.72949H333.075l-.45117,1.72949-20.59522,49.082Z"/><path d="M394.84106,297.2638l12.47754.0752c.15039,8.34277,7.06543,15.10742,19.69287,15.10742,11.57568,0,17.58887-4.88476,17.58887-12.62695,0-8.56934-7.291-10.82422-19.31739-12.77832-14.28125-2.10449-26.834-7.14063-26.834-22.625,0-12.55176,9.16992-22.47364,27.43506-22.47364,17.73926,0,29.46484,9.6211,29.46484,23H442.64575c-.37549-7.291-6.53906-12.17675-16.76172-12.17675-9.92188,0-14.65723,5.18652-14.65723,11.35058,0,7.291,4.13428,9.9961,18.41553,12.40137,14.05566,2.18066,28.11182,5.93848,28.11182,22.625,0,15.709-12.62793,23.82715-30.89307,23.82715C405.4392,322.96986,394.84106,310.34193,394.84106,297.2638Z"/><path d="M483.50228,292.37806V255.47181h-17.0625V244.1222h17.0625V221.34681l12.92823-.07519V244.1222h25.33056v11.34961H496.43051v37.50781c0,14.28125,6.91552,16.83692,13.75537,16.83692h11.57519v10.97363H507.63021C495.97982,320.79017,483.50228,316.28041,483.50228,292.37806Z"/><path d="M534.10741,282.45619c0-22.39942,16.16063-40.43848,36.981-40.43848,13.83056,0,25.25537,7.14062,30.44189,18.56543V244.1222h12.40235v76.668H601.53026V304.47962c-5.18652,11.34961-16.68652,18.49024-30.3667,18.49024C550.19286,322.96986,534.10741,305.006,534.10741,282.45619Zm66.97168,0c0-15.85938-12.10156-28.33692-26.98389-28.33692-14.958,0-27.13476,11.80078-27.13476,28.33692,0,16.9873,12.32715,28.41211,27.05957,28.41211C589.05272,310.8683,601.07909,298.54115,601.07909,282.45619Z"/><path d="M628.65611,282.45619c0-22.39942,16.9873-40.51368,39.16113-40.51368,18.26465,0,32.17041,11.42481,36.75537,27.28418h-13.3042c-3.98388-9.92089-13.00342-15.10742-23.37646-15.10742-13.37891,0-26.30762,10.82324-26.30762,28.33692,0,17.66406,13.00342,28.41211,26.30762,28.41211,10.29785,0,19.39258-5.26172,23.37646-15.78418h13.229c-4.35938,16.53613-18.49073,27.88574-36.68018,27.88574C645.64341,322.96986,628.65611,304.8556,628.65611,282.45619Z"/><path d="M750.14226,283.35853l-14.35644,15.85938v21.57226H722.8576v-105.832h12.92822v69.97852l32.92236-40.81446h15.85938L759.613,274.86439l28.86328,45.92578H773.819Z"/><polygon points="763.242 211.382 774.353 62.111 871.921 167.324 763.242 211.382"/><polyline points="815.446 188.125 722.858 102.141 905.033 95.118 841.566 152.352 852.877 223.436 815.446 188.125 818.351 185.74 847.496 213.321 837.57 150.94 894.905 99.235 731.968 105.518 818.351 185.74"/><polygon points="772.053 93.012 771.235 104.004 811.753 102.442 804.441 94.556 772.053 93.012"/><path class="cls-1" d="M811.75391,241.80151h-.04511a5.58834,5.58834,0,0,1-5.16861-3.57718L784.97782,182.2961l-54.05016,1.60344a5.58769,5.58769,0,0,1-4.1701-9.48167l130.137-133.74876a5.58746,5.58746,0,0,1,9.49258,4.9449l-15.98745,83.70174,52.97562,56.85a5.5877,5.5877,0,0,1-5.41051,9.238L839.98029,181.2754l-23.0465,57.03187A5.58762,5.58762,0,0,1,811.75391,241.80151Zm-22.98539-70.79495a5.58784,5.58784,0,0,1,5.21226,3.57718l17.895,46.41528,19.55371-48.389a5.58584,5.58584,0,0,1,6.50286-3.33564l44.54158,10.853-42.18153-45.26654a5.58775,5.58775,0,0,1-1.40046-4.8576l13.02538-68.19409L744.38991,172.32045l44.212-1.3117C788.65758,171.00729,788.71323,171.00656,788.76852,171.00656Z"/><path class="cls-2" d="M491.19209,372.68543h-2.972V368.609h-.08551a10.74506,10.74506,0,0,1-9.04386,4.62856,12.19047,12.19047,0,1,1,0-24.37384,10.50545,10.50545,0,0,1,9.04386,4.6708h.08551v-4.07639h2.972Zm-12.10141-2.12318a9.51157,9.51157,0,1,0-9.51157-9.4271A9.21666,9.21666,0,0,0,479.09068,370.56225Z"/><path class="cls-2" d="M496.73235,349.45817h2.97307v2.97307h.08447a8.30246,8.30246,0,0,1,7.13393-3.56748,9.652,9.652,0,0,1,7.34615,2.84533c1.741,1.69876,2.88757,4.37308,2.88757,8.195v12.78133h-2.972V359.9041c0-3.01428-.93437-5.13746-2.20869-6.36954a7.39547,7.39547,0,0,0-10.106,0c-1.27432,1.23208-2.20766,3.35526-2.16542,6.36954v12.78133h-2.97307Z"/><path class="cls-2" d="M647.68015,372.68543h-2.972V368.609h-.08551a10.74506,10.74506,0,0,1-9.04386,4.62856,12.19047,12.19047,0,1,1,0-24.37384,10.50767,10.50767,0,0,1,9.04386,4.6708h.08551v-4.07639h2.972Zm-12.10141-2.12318a9.51157,9.51157,0,1,0-9.5126-9.4271A9.21752,9.21752,0,0,0,635.57874,370.56225Z"/><path class="cls-2" d="M677.70035,369.03347c0,2.50538,0,5.6474-2.12318,8.49273-2.92981,4.07638-8.28051,4.2886-9.21488,4.2886-3.312,0-9.766-1.27432-11.8892-8.535h3.142a9.00321,9.00321,0,0,0,8.70494,5.85961c3.90641,0,8.40723-2.2499,8.40723-8.66168v-2.03871h-.08448c-1.741,3.312-5.56292,4.79854-8.95939,4.79854a12.05819,12.05819,0,0,1-12.14468-12.05918,12.22631,12.22631,0,0,1,12.14468-12.31466,10.49873,10.49873,0,0,1,8.95939,4.7563h.08448v-4.16189h2.97307Zm-12.01694,1.52878c6.1563,0,9.21385-5.51966,9.21385-9.46933a9.2,9.2,0,1,0-18.38649,0A9.30729,9.30729,0,0,0,665.68341,370.56225Z"/><path class="cls-2" d="M686.74216,362.155a9.23409,9.23409,0,0,0,9.00163,8.40723,8.80524,8.80524,0,0,0,8.32274-5.47742h3.142a11.49691,11.49691,0,1,1,.67992-2.92981Zm18.131-2.67535a9.14518,9.14518,0,0,0-18.131,0Z"/><path class="cls-2" d="M713.83255,349.45817h2.97307v2.97307h.08448a8.30093,8.30093,0,0,1,7.13393-3.56748,9.65346,9.65346,0,0,1,7.34614,2.84533c1.741,1.69876,2.88654,4.37308,2.88654,8.195v12.78133h-2.972V359.9041c0-3.01428-.93436-5.13746-2.20765-6.36954a7.39548,7.39548,0,0,0-10.106,0c-1.27432,1.23208-2.20868,3.35526-2.16542,6.36954v12.78133h-2.97307Z"/><path class="cls-2" d="M764.10693,365.84922c-1.48653,2.88756-4.58631,7.38838-11.55027,7.38838a12.21877,12.21877,0,0,1-12.4836-12.14468,12.52256,12.52256,0,0,1,24.03387-4.62856h-3.26976a9.1742,9.1742,0,0,0-8.195-4.92524,9.51195,9.51195,0,1,0,0,19.02313,8.89744,8.89744,0,0,0,8.195-4.713Z"/><path class="cls-2" d="M776.07958,371.921l-9.0449-22.46287h3.142l7.38941,18.51423,7.89729-18.51423h3.142l-13.46021,31.38h-3.09978Z"/><path class="cls-2" d="M578.87043,355.90555c-.043-.54986-.13465-1.91724-2.37289-1.91724-1.59728,0-2.14608,1.00393-2.14608,1.68659,0,1.37254,1.87089,2.14941,3.88107,2.74044,4.293,1.18982,8.858,2.46556,8.858,7.9465,0,5.33985-4.70174,8.62757-10.31911,8.62757-3.83552,0-9.63229-1.7324-10.3178-8.399h7.53181a2.69667,2.69667,0,0,0,2.87893,2.327c1.27754,0,2.64576-.731,2.64576-1.96357,0-1.96257-1.87248-2.19163-6.71039-4.062-3.289-1.0518-6.02922-3.19815-6.02922-6.62178,0-5.02169,4.56816-8.35269,9.81766-8.35269,3.33326,0,9.08628,1.32209,9.72518,7.9882Z"/><path class="cls-2" d="M612.36915,360.64715a13.60228,13.60228,0,1,0-7.31223,12.6232v8.54781H612.398Zm-13.57051,6.91215a6.44058,6.44058,0,1,1,6.44184-6.44058A6.43913,6.43913,0,0,1,598.79864,367.5593Z"/><path class="cls-2" d="M564.34512,350.93324c-2.02045-2.11234-5.80241-3.09313-8.63247-3.09313a13.96347,13.96347,0,0,0-7.61595,2.22617,13.96719,13.96719,0,0,0-7.61748-2.22617c-2.83185,0-6.6107.98079-8.634,3.09313-2.335,2.47327-2.69674,4.13571-2.69674,9.66346v13.76356h7.46V360.95555c0-2.0233.04972-5.52933,3.87079-5.52933,3.81981,0,3.86952,3.506,3.86952,5.52933v13.40471h7.49264V360.95555c0-2.0233.04993-5.52933,3.87127-5.52933,3.8206,0,3.86926,3.506,3.86926,5.52933v13.40471h7.45969V360.5967C567.0416,355.06895,566.68121,353.40651,564.34512,350.93324Z"/></svg>