<svg xmlns="http://www.w3.org/2000/svg" xmlns:xlink="http://www.w3.org/1999/xlink" width="34" height="34" viewBox="0 0 34 34">
  <defs>
    <rect id="rect-2" width="22.81" height="22.672" x="6" y="6"/>
    <mask id="mask-3" maskContentUnits="userSpaceOnUse" maskUnits="userSpaceOnUse">
      <rect width="34" height="34" x="0" y="0" fill="black"/>
      <use fill="white" xlink:href="#rect-2"/>
    </mask>
  </defs>
  <g>
    <rect width="34" height="34" x="0" y="0" fill="none"/>
    <g>
      <use fill="none" xlink:href="#rect-2"/>
      <g mask="url(#mask-3)">
        <path fill="rgb(244,239,255)" fill-rule="evenodd" d="M17.40524358 6C11.10630175 6 6 11.10630041 6 17.40524358c0 5.69268675 4.17073274 10.41107434 9.62317427 11.26663802v-7.9698098h-2.89586263v-3.29682822h2.89586263v-2.51271773c0-2.85844318 1.7027347-4.43735258 4.30791242-4.43735258 1.24785906 0 2.55305442.22275867 2.55305442.22275867v2.80675916h-1.43819386c-1.41679077 0-1.85863436.87915427-1.85863436 1.78111768v2.1394348h3.16317302l-.50566216 3.29682822h-2.65751086v7.9698098c5.45244153-.85556368 9.62317427-5.57395127 9.62317427-11.26663802C28.81048716 11.10630041 23.7041854 6 17.40524358 6z"/>
      </g>
    </g>
  </g>
</svg>
