<svg xmlns="http://www.w3.org/2000/svg" width="34" height="34" viewBox="0 0 34 34">
  <g>
    <path fill="rgb(244,239,255)" fill-rule="evenodd" d="M17.13330078 5.66366577h-.00378418c-3.20458984 0-3.6072998.01391602-4.86669922.07070923-1.25756836.05706787-2.11584472.2543335-2.86694336.5437622-.77685547.2989502-1.43579101.69882203-2.09240722 1.3496399-.65698242.65054321-1.06054688 1.30352783-1.36328125 2.0730896-.29284668.74441528-.4921875 1.5951538-.54870606 2.84066772-.05639648 1.2484436-.07116699 1.64761353-.07116699 4.82623291 0 3.1786499.01428223 3.57635498.07141113 4.82479859.05773926 1.2460022.25683594 2.09649658.54870606 2.84066772.30200195.76980591.7055664 1.42279053 1.36230468 2.07333374.65637208.65106201 1.31530762 1.0519104 2.09167481 1.3508606.75158691.2894287 1.61010742.48669433 2.86743164.5437622 1.2598877.05679322 1.66223145.07070923 4.86987305.07070923 3.20825195 0 3.60961914-.01391601 4.86950683-.07070922 1.25756836-.05706788 2.1168213-.2543335 2.8684082-.54376221.77661133-.2989502 1.43457032-.69979859 2.09094239-1.3508606.65698242-.65054321 1.06054687-1.30352783 1.36328125-2.0730896.29040527-.74441528.4897461-1.5951538.54870605-2.84066772.05664063-1.2484436.07141114-1.64639282.07141114-4.82504273 0-3.17861938-.01477051-3.57754516-.07141114-4.82598877-.05895996-1.2460022-.25830078-2.09649658-.54870605-2.84066772-.30273438-.7698059-.70629883-1.42279053-1.36328125-2.07333374-.6571045-.65106201-1.31408692-1.05093384-2.0916748-1.3496399-.75305176-.2894287-1.61193848-.48669433-2.86938477-.5437622-1.25939942-.05679321-1.66064453-.07070923-4.86621094-.07070923zm-.4173584 2.10906983h.02368164l.39367676.00012207c3.1538086 0 3.5275879.01119995 4.77294922.06729126 1.1517334.05218505 1.7767334.24285888 2.19311523.40307617.55126954.21212768.94421387.46572876 1.35742188.8753662.41345215.40963746.66931152.79977418.88391113 1.3459778.16174317.41207885.35437012 1.03140258.40673828 2.1725769.05664063 1.23379516.06896973 1.60443115.06896973 4.7279663 0 3.12353516-.0123291 3.49417115-.06896973 4.72796631-.0526123 1.1411438-.24499511 1.76049805-.40673828 2.1725769-.21411133.54620362-.47045898.93511964-.88391113 1.34451295-.41345215.40963745-.8059082.66323852-1.35742188.8753662-.41589355.16094972-1.04138183.35113526-2.19311523.40332032-1.24511719.0560608-1.61914063.06826782-4.77294922.06826782-3.15405273 0-3.52783203-.01220703-4.77307129-.06826782-1.15161133-.05267334-1.77661133-.24334717-2.1932373-.40356445-.55126953-.21212769-.9449463-.46572876-1.35839844-.87536621-.41345215-.40963745-.66931152-.79879761-.88391113-1.34524536-.16174317-.41207886-.35437012-1.03143311-.40686035-2.1725769-.05651856-1.23379518-.0678711-1.60443116-.0678711-4.72991944s.01135254-3.49417115.0678711-4.72796631c.05273437-1.14117432.24511718-1.76049805.40686035-2.17306519.21411133-.54620361.47045898-.93634033.88391113-1.34597778.41345215-.40963745.8071289-.66323853 1.35839844-.8758545.41638183-.1609497 1.04162597-.35113525 2.1932373-.40356445 1.08972168-.04876709 1.5119629-.063385 3.7133789-.06582641v.00292969c.19567872-.00030518.40551759-.00021363.63098145-.00012207h.01135254zm5.30505371 3.34747314c0-.77563477.6348877-1.4039917 1.41748047-1.4039917.7824707-.00048828 1.4173584.62860108 1.4173584 1.4039917 0 .77542114-.6348877 1.4045105-1.4173584 1.4045105-.78259277 0-1.41748047-.62908936-1.41748047-1.4045105zm-4.8876953.23703003c-3.34985352 0-6.06591798 2.69122314-6.06591798 6.01055908s2.71606446 6.00930786 6.06591797 6.00930786c3.34997559 0 6.0649414-2.68997192 6.0649414-6.00930786 0-3.31933594-2.71520995-6.01055908-6.0649414-6.01055908zm3.93725585 6.01052856c0-2.15478515-1.76293945-3.90136718-3.93725586-3.90136718-2.17468262 0-3.93737793 1.74658203-3.93737793 3.90136718 0 2.15454102 1.76269531 3.9013672 3.93737793 3.9013672 2.1743164 0 3.93725586-1.74682618 3.93725586-3.9013672z"/>
    <rect width="34" height="34" x="0" y="0" fill="none"/>
  </g>
</svg>
