<svg xmlns="http://www.w3.org/2000/svg" width="34" height="34" viewBox="0 0 34 34">
  <g>
    <rect width="34" height="34" x="0" y="0" fill="none"/>
    <path fill="rgb(244,239,255)" fill-rule="evenodd" d="M17.65336948 12.97816786l.05202394.84215286-.86706619-.10312082c-3.15612086-.39529618-5.91339131-1.73586604-8.25447001-3.98733591L7.43932983 8.61272251l-.29480245.82496603c-.62428767 1.83898685-.22543726 3.78109436 1.07516202 5.08729064.69365295.7218453.53758105.82496603-.65897027.39529627-.41619175-.1374944-.78035956-.24061513-.81504224-.18905472-.12138922.12030748.29480253 1.68430563.62428767 2.3030302.45087443.8593396 1.36996455 1.70149246 2.37576138 2.19990946l.84972484.39529627-1.00579682.01718674c-.97111406 0-1.00579674.01718683-.90174879.37810944.34682648 1.11714156 1.71679104 2.3030302 3.24282749 2.81863403l1.0751621.3609226-.93643146.54997741c-1.3873059.79059245-3.01739031 1.23744904-4.64747472 1.27182262C6.641629 25.04329633 6 25.11204349 6 25.1636039c0 .17186788 2.11564144 1.1343283 3.34687544 1.51243774 3.69370192 1.11714156 8.08105678.6359113 11.37590829-1.2718227 2.3410787-1.3577566 4.6821574-4.05608307 5.77466076-6.66847555.58960499-1.39213018 1.17921006-3.9357755 1.17921006-5.1560378 0-.79059245.05202394-.89371318 1.02313808-1.83898686.57226365-.54997732 1.1098447-1.15151505 1.21389266-1.32338302.17341324-.32654903.1560719-.32654903-.72833563-.03437358-1.47401251.51560383-1.68210835.4468566-.9537728-.32654903.53758105-.5499774 1.17920998-1.54681132 1.17920998-1.83898686 0-.05156032-.26011986.03437358-.5549223.18905472-.31214389.17186797-1.00579683.42966985-1.52603646.58435099l-.93643155.29217545-.84972484-.56716416c-.4682157-.30936228-1.12718604-.65309814-1.47401252-.75621887-.88440744-.24061513-2.23703074-.20624155-3.03473157.06874716-2.16766546.7734057-3.53763001 2.76707361-3.38155812 4.94979633z"/>
  </g>
</svg>
